<?xml version="1.0" standalone="no"?><!-- Generator: Gravit.io --><svg xmlns="http://www.w3.org/2000/svg" xmlns:xlink="http://www.w3.org/1999/xlink" style="isolation:isolate" viewBox="0 0 4400 4400" width="4400" height="4400"><defs><clipPath id="_clipPath_xackpv6Vt6dqtUtxjnC4eDXNfLfWLwd4"><rect width="4400" height="4400"/></clipPath></defs><g clip-path="url(#_clipPath_xackpv6Vt6dqtUtxjnC4eDXNfLfWLwd4)"><rect width="4400" height="4400" style="fill:rgb(32,32,32)"/><clipPath id="_clipPath_2LpyC9HUfwk90ZcWvS53G5MyYB7V5tnD"><rect x="0" y="0" width="4400" height="4400" transform="matrix(1,0,0,1,0,0)" fill="rgb(255,255,255)"/></clipPath><g clip-path="url(#_clipPath_2LpyC9HUfwk90ZcWvS53G5MyYB7V5tnD)"><g id="Group"><g opacity="0"><rect x="0" y="0" width="4400" height="4400" transform="matrix(1,0,0,1,0,0)" fill="rgb(32,32,32)"/></g><clipPath id="_clipPath_xoAmYCh3ifMMc4fNw5rfHtxtj3XjLZi8"><rect x="200" y="200" width="4000" height="4000" transform="matrix(1,0,0,1,0,0)" fill="rgb(255,255,255)"/></clipPath><g clip-path="url(#_clipPath_xoAmYCh3ifMMc4fNw5rfHtxtj3XjLZi8)"><g id="Group"><g id="Group"><g id="Group"><path d=" M 2185.287 1266.369 C 2207.17 1270.5 2370.751 1369.784 2402.331 1388.081 L 2769.672 1599.163 C 2842.746 1641.455 2914.787 1685.737 2988.593 1726.705 L 2989.185 2043.164 L 2587.56 2043.127 L 2586.959 1958.741 C 2455.193 1879.753 2320.526 1804.604 2187.381 1727.897 C 2056.779 1810.039 1919.859 1882.297 1786.732 1960.224 L 1786.967 2420.785 C 1845.649 2457.988 1907.608 2491.652 1967.849 2526.321 C 2040.613 2568.209 2113.143 2611.421 2187.249 2650.84 C 2240.299 2623.597 2291.838 2591.416 2343.489 2561.544 L 2587.212 2420.682 L 2587.419 2338.182 L 2988.311 2338.323 L 2988.124 2654.464 C 2957.06 2674.619 2923.029 2691.808 2890.811 2710.255 L 2727.718 2804.676 L 2188.545 3116.301 C 2077.948 3054.934 1969.314 2989.53 1859.44 2926.82 C 1701.82 2835.045 1541.826 2746.923 1385.398 2653.159 L 1385.229 2339.393 C 1253.501 2341.261 1121.616 2339.215 989.873 2339.412 L 989.518 2883.11 Q 788.091 2997.49 588.246 3114.63 L 587.857 1267.505 C 601.34 1273.401 614.546 1282.798 627.295 1290.252 L 702.874 1334.102 L 988.788 1502.282 L 989.561 2041.775 L 1385.276 2041.888 C 1387.05 1936.98 1385.398 1831.772 1385.445 1726.836 C 1419.26 1704.033 1456.285 1684.676 1491.733 1664.502 L 1676.661 1559.003 C 1845.903 1461.192 2013.53 1359.702 2185.287 1266.369 Z " fill="rgb(236,236,236)"/><path d=" M 3410.482 2884.434 Q 3611.909 2998.985 3811.754 3116.301 L 3812.143 1266.401 C 3798.66 1272.305 3785.454 1281.717 3772.705 1289.182 L 3697.126 1333.098 L 3411.212 1501.531 L 3410.439 2041.834 L 3410.482 2884.434 Z " fill="rgb(195,44,46)"/><path d=" M 2183.288 344.095 C 2192.919 344.402 2204.945 352.859 2213.431 357.526 C 2259.722 382.998 2304.933 410.666 2350.811 436.909 Q 2560.842 556.354 2769.409 678.313 L 3191.039 922.496 C 3264.122 964.819 3338.21 1005.611 3410.439 1049.38 C 3362.749 1078.644 3313.417 1105.754 3265.192 1134.203 L 3014.024 1283.699 L 2190.507 806.911 C 2185.081 807.533 2180.161 809.887 2175.439 812.523 C 2095.343 857.164 2016.966 905.572 1937.423 951.309 L 1361.713 1283.399 L 963.311 1048.572 C 1200.702 915.905 1434.693 776.792 1670.315 640.987 L 1957.569 476.337 C 2033.291 433.052 2109.265 390.255 2183.288 344.095 Z " fill="rgb(195,44,46)"/><path d=" M 2183.288 4055.905 C 2192.919 4055.598 2204.945 4047.141 2213.431 4042.474 C 2259.722 4017.002 2304.933 3989.334 2350.811 3963.091 Q 2560.842 3843.646 2769.409 3721.687 L 3191.039 3477.504 C 3264.122 3435.181 3338.21 3394.389 3410.439 3350.62 C 3362.749 3321.356 3313.417 3294.246 3265.192 3265.797 L 3014.024 3116.301 L 2190.507 3593.089 C 2185.081 3592.467 2180.161 3590.113 2175.439 3587.477 C 2095.343 3542.836 2016.966 3494.428 1937.423 3448.691 L 1361.713 3116.601 L 963.311 3351.428 C 1200.702 3484.095 1434.693 3623.208 1670.315 3759.013 L 1957.569 3923.663 C 2033.291 3966.948 2109.265 4009.745 2183.288 4055.905 Z " fill="rgb(195,44,46)"/></g></g></g></g></g></g></g></svg>